<?xml version="1.0" encoding="UTF-8" standalone="no"?>
<!-- Created with Inkscape (http://www.inkscape.org/) -->

<svg
   width="256"
   height="256"
   id="svg2"
   version="1.1"
   inkscape:version="1.4.2 (1:1.4.2+202505120737+ebf0e940d0)"
   sodipodi:docname="sc-apps-ghostwriter.svg"
   inkscape:export-filename="/home/mustangsally/ghostwriter/resources/icons/hicolor/16x16/apps/ghostwriter.png"
   inkscape:export-xdpi="5.625"
   inkscape:export-ydpi="5.625"
   xmlns:inkscape="http://www.inkscape.org/namespaces/inkscape"
   xmlns:sodipodi="http://sodipodi.sourceforge.net/DTD/sodipodi-0.dtd"
   xmlns:xlink="http://www.w3.org/1999/xlink"
   xmlns="http://www.w3.org/2000/svg"
   xmlns:svg="http://www.w3.org/2000/svg"
   xmlns:rdf="http://www.w3.org/1999/02/22-rdf-syntax-ns#"
   xmlns:cc="http://creativecommons.org/ns#"
   xmlns:dc="http://purl.org/dc/elements/1.1/">
  <defs
     id="defs4">
    <linearGradient
       id="linearGradient4011">
      <stop
         id="stop4025"
         offset="0"
         style="stop-color:#efefef;stop-opacity:0.11764706;" />
      <stop
         style="stop-color:#b7b7b7;stop-opacity:0.15686275;"
         offset="0.17821626"
         id="stop3775" />
      <stop
         id="stop4019"
         offset="0.65528649"
         style="stop-color:#7f7f7f;stop-opacity:0.19607843;" />
      <stop
         style="stop-color:#000000;stop-opacity:0.39215687;"
         offset="1"
         id="stop4015" />
    </linearGradient>
    <linearGradient
       id="linearGradient3880">
      <stop
         style="stop-color:#000000;stop-opacity:0.39215687;"
         offset="0"
         id="stop3882" />
      <stop
         style="stop-color:#ffffff;stop-opacity:0.19607843;"
         offset="1"
         id="stop3884" />
    </linearGradient>
    <linearGradient
       inkscape:collect="always"
       xlink:href="#linearGradient3880-9"
       id="linearGradient3886-8"
       x1="398.97879"
       y1="1059.0389"
       x2="166.99251"
       y2="827.2099"
       gradientUnits="userSpaceOnUse"
       gradientTransform="matrix(1,0,0,1.0080012,-154.54657,-29.408105)" />
    <linearGradient
       id="linearGradient3880-9">
      <stop
         style="stop-color:#000000;stop-opacity:0.78431374;"
         offset="0"
         id="stop3882-3" />
      <stop
         style="stop-color:#ffffff;stop-opacity:0;"
         offset="1"
         id="stop3884-5" />
    </linearGradient>
    <linearGradient
       inkscape:collect="always"
       xlink:href="#linearGradient3880"
       id="linearGradient3992"
       gradientUnits="userSpaceOnUse"
       gradientTransform="matrix(0.98784118,0,0,0.98784118,-150.40584,-8.4322618)"
       x1="398.97879"
       y1="1059.0389"
       x2="292.25928"
       y2="951.96539" />
  </defs>
  <sodipodi:namedview
     id="base"
     pagecolor="#ffffff"
     bordercolor="#666666"
     borderopacity="1.0"
     inkscape:pageopacity="0.0"
     inkscape:pageshadow="2"
     inkscape:zoom="2"
     inkscape:cx="182"
     inkscape:cy="223.25"
     inkscape:document-units="px"
     inkscape:current-layer="g4316"
     showgrid="false"
     inkscape:object-paths="true"
     showguides="true"
     inkscape:guide-bbox="true"
     showborder="false"
     inkscape:showpageshadow="false"
     inkscape:window-width="1920"
     inkscape:window-height="1044"
     inkscape:window-x="1280"
     inkscape:window-y="0"
     inkscape:window-maximized="1"
     inkscape:pagecheckerboard="0"
     inkscape:deskcolor="#d1d1d1" />
  <metadata
     id="metadata7">
    <rdf:RDF>
      <cc:Work
         rdf:about="">
        <dc:format>image/svg+xml</dc:format>
        <dc:type
           rdf:resource="http://purl.org/dc/dcmitype/StillImage" />
        <dc:title />
      </cc:Work>
    </rdf:RDF>
  </metadata>
  <g
     inkscape:label="Layer 1"
     inkscape:groupmode="layer"
     id="layer1"
     transform="translate(0,-796.36218)">
    <rect
       style="fill:#65cb65;fill-opacity:1;stroke:#ffffff;stroke-width:6.4502913;stroke-linecap:butt;stroke-linejoin:miter;stroke-miterlimit:4;stroke-dasharray:none;stroke-opacity:1;font-variation-settings:normal;opacity:1;vector-effect:none;stroke-dashoffset:0;-inkscape-stroke:none;marker:none;stop-color:#000000;stop-opacity:1"
       id="rect2985"
       width="254.17442"
       height="254.17442"
       x="0.96005583"
       y="797.14386"
       ry="35.232101" />
    <ellipse
       style="fill:#ffffff;fill-opacity:1;fill-rule:evenodd;stroke:none"
       id="path3757"
       cx="128.04727"
       cy="924.23114"
       rx="110.22798"
       ry="115.23837" />
    <ellipse
       style="fill:#ffffff;fill-opacity:1;fill-rule:evenodd;stroke:none"
       id="path3761"
       cx="223.88249"
       cy="883.22632"
       rx="24.345951"
       ry="23.806684" />
    <ellipse
       style="fill:#ffffff;fill-opacity:1;fill-rule:evenodd;stroke:none"
       id="path3761-4"
       cx="32.212048"
       cy="881.42883"
       rx="24.345951"
       ry="23.806684" />
    <path
       style="fill:#ffffff;fill-opacity:1;stroke:none"
       d="m 137.58842,1039.028 c 50.97732,-2.6852 90.77829,-10.666 106.04817,-15.392 -25.36674,-8.1925 -21.62871,-41.21246 -12.50549,-58.98543 z"
       id="path3781"
       inkscape:connector-curvature="0"
       sodipodi:nodetypes="cccc" />
    <g
       id="g1"
       transform="matrix(0.92175977,0,0,0.92175977,288.7503,248.26913)">
      <g
         id="g4316"
         transform="matrix(1.275782,0,0,1.275782,-941.244,801.04732)"
         style="display:inline">
        <g
           id="g4258"
           transform="matrix(1.0910418,-1.186647,1.186647,1.0910418,-4.0183375,703.92684)">
          <path
             inkscape:connector-curvature="0"
             style="color:#000000;font-style:normal;font-variant:normal;font-weight:normal;font-stretch:normal;font-size:medium;line-height:normal;font-family:Sans;-inkscape-font-specification:Sans;text-indent:0;text-align:start;text-decoration:none;text-decoration-line:none;letter-spacing:normal;word-spacing:normal;text-transform:none;writing-mode:lr-tb;direction:ltr;baseline-shift:baseline;text-anchor:start;display:inline;overflow:visible;visibility:visible;fill:#000000;fill-opacity:1;stroke:none;stroke-width:7;marker:none;enable-background:accumulate"
             d="m 603.97331,-85.334645 c -2.9845,0.04 -6.52364,1.6733 -9.77398,5.3659 -3.71709,4.3569 -6.57017,12.2053 -0.5885,16.4092 0.46941,0.242 0.96655,0.417 1.47706,0.5424 l -17.54005,39.8112 c -3.18853,-0.4064 -7.22717,1.1433 -10.8933,5.3082 -3.71713,4.357 -6.57021,12.1938004 -0.58853,16.3977004 4.85553,2.5034 12.21762,-1.4004 15.60141,-8.2739 2.85682,-5.8029004 1.78281,-10.2862004 -1.13087,-12.3126004 -0.16691,-0.1161 -0.34072,-0.2234 -0.51926,-0.3231 l 17.80545,-40.446 c 0.44012,-0.047 0.88025,-0.1316 1.32706,-0.2423 l 0.38078,40.9768 c -1.77398,0.8686 -3.5953,2.2513 -5.33125,4.2234 -3.71709,4.357 -6.57017,12.1938004 -0.5885,16.3977004 4.8555,2.5034 12.21763,-1.4004 15.60142,-8.2739 2.85678,-5.8029004 1.78281,-10.2862004 -1.13087,-12.3126004 -1.56945,-1.0915 -3.67089,-1.4691 -5.97747,-0.9578 l -0.38082,-41.0229 c 0.38965,-0.1972 0.77224,-0.4184 1.15395,-0.6578 l 16.62845,50.1045 c -2.30993,4.3294 -3.02305,9.8362004 1.65014,13.1205004 4.85553,2.5034 12.21762,-1.4004 15.60141,-8.2739 2.85682,-5.8029004 1.78281,-10.2862004 -1.13087,-12.3126004 -3.2935,-2.2906 -8.92914,-1.4379 -13.88201,4.1888 -0.14209,0.1665 -0.28788,0.343 -0.42698,0.5193 l -16.25915,-48.9852 c 0.29932,-0.2671 0.59156,-0.5496 0.877,-0.8424 l 15.43986,18.7286 c -3.52721,4.4293 -5.99991,11.885 -0.21926,15.9476 4.85553,2.5035 12.21762,-1.4003 15.60141,-8.2738 2.85682,-5.803 1.78281,-10.2862 -1.13087,-12.3127 -2.98473,-2.0758 -7.89321,-1.5769 -12.47419,2.7234 l -15.52066,-18.8325 c 0.58798,-0.8133 1.12282,-1.689 1.58093,-2.6195 2.85678,-5.803 1.78281,-10.2863 -1.13087,-12.3126 -1.13216,-0.7874 -2.54475,-1.198 -4.10807,-1.1771 z"
             id="path4052" />
          <path
             style="color:#000000;display:inline;overflow:visible;visibility:visible;fill:#ffffff;fill-opacity:1;fill-rule:nonzero;stroke:#000000;stroke-width:1.50565;stroke-linecap:butt;stroke-linejoin:miter;stroke-miterlimit:4;stroke-dasharray:none;stroke-dashoffset:0;stroke-opacity:1;marker:none;enable-background:accumulate"
             d="m 626.53123,-6.0580446 c -3.48423,-2.4487 -1.82406,-7.0179004 0.34112,-9.5558004 2.88499,-3.2775 6.16967,-3.7714 8.08811,-2.4372 1.69718,1.1804 2.32507,3.7915 0.66102,7.1716 -1.97098,4.0037004 -6.26195,6.2796004 -9.09025,4.8214004 z"
             id="path4054"
             inkscape:connector-curvature="0"
             sodipodi:nodetypes="ccssc" />
          <path
             sodipodi:nodetypes="ccssc"
             inkscape:connector-curvature="0"
             id="path4056"
             d="m 623.30434,-33.486645 c -3.48427,-2.4487 -1.82406,-7.0179 0.34112,-9.5558 2.88499,-3.2775 6.16967,-3.7713 8.08811,-2.4372 1.69718,1.1804 2.32507,3.7915 0.66102,7.1716 -1.97102,4.0038 -6.26195,6.2796 -9.09025,4.8214 z"
             style="color:#000000;display:inline;overflow:visible;visibility:visible;fill:#ffffff;fill-opacity:1;fill-rule:nonzero;stroke:#000000;stroke-width:1.50565;stroke-linecap:butt;stroke-linejoin:miter;stroke-miterlimit:4;stroke-dasharray:none;stroke-dashoffset:0;stroke-opacity:1;marker:none;enable-background:accumulate" />
          <path
             sodipodi:nodetypes="ccssc"
             inkscape:connector-curvature="0"
             id="path4058"
             d="m 596.68249,-6.0580446 c -3.48427,-2.4487 -1.82406,-7.0179004 0.34112,-9.5558004 2.88499,-3.2775 6.16967,-3.7714 8.08811,-2.4372 1.69717,1.1804 2.32507,3.7915 0.66102,7.1716 -1.97102,4.0037004 -6.26195,6.2796004 -9.09025,4.8214004 z"
             style="color:#000000;display:inline;overflow:visible;visibility:visible;fill:#ffffff;fill-opacity:1;fill-rule:nonzero;stroke:#000000;stroke-width:1.50565;stroke-linecap:butt;stroke-linejoin:miter;stroke-miterlimit:4;stroke-dasharray:none;stroke-dashoffset:0;stroke-opacity:1;marker:none;enable-background:accumulate" />
          <path
             style="color:#000000;display:inline;overflow:visible;visibility:visible;fill:#ffffff;fill-opacity:1;fill-rule:nonzero;stroke:#000000;stroke-width:1.50565;stroke-linecap:butt;stroke-linejoin:miter;stroke-miterlimit:4;stroke-dasharray:none;stroke-dashoffset:0;stroke-opacity:1;marker:none;enable-background:accumulate"
             d="m 568.93855,-9.3195446 c -3.48427,-2.4487004 -1.82406,-7.0179004 0.34113,-9.5558004 2.88498,-3.2775 6.16966,-3.7713 8.0881,-2.4371 1.69718,1.1803 2.32508,3.7914 0.66102,7.1716 -1.97102,4.0037 -6.26198,6.2795004 -9.09025,4.8213004 z"
             id="path4060"
             inkscape:connector-curvature="0"
             sodipodi:nodetypes="ccssc" />
        </g>
      </g>
    </g>
  </g>
</svg>
